<?xml version="1.0" standalone="no"?>
<!DOCTYPE svg PUBLIC "-//W3C//DTD SVG 20010904//EN"
 "http://www.w3.org/TR/2001/REC-SVG-20010904/DTD/svg10.dtd">
<svg version="1.0" xmlns="http://www.w3.org/2000/svg"
 width="530.000000pt" height="530.000000pt" viewBox="0 0 530.000000 530.000000"
 preserveAspectRatio="xMidYMid meet">
<metadata>
Created by potrace 1.11, written by Peter Selinger 2001-2013
</metadata>
<g transform="translate(0.000000,530.000000) scale(0.100000,-0.100000)"
fill="#000000" stroke="none">
<path d="M2865 5274 c-85 -40 -178 -81 -217 -95 -21 -7 -38 -17 -38 -21 0 -4
-3 -7 -7 -6 -8 1 -42 -11 -88 -31 -11 -5 -36 -16 -55 -24 -19 -8 -56 -24 -82
-36 -27 -12 -60 -26 -75 -32 -57 -21 -83 -34 -83 -42 0 -5 -4 -6 -9 -3 -5 3
-24 -2 -42 -11 -19 -10 -40 -18 -48 -19 -8 -2 -17 -6 -20 -11 -3 -4 -11 -9
-17 -10 -7 -1 -38 -14 -70 -28 -33 -14 -61 -26 -64 -27 -3 0 -14 -5 -25 -11
-11 -6 -26 -12 -34 -13 -8 -2 -17 -8 -21 -14 -4 -7 -10 -11 -14 -11 -14 3 -56
-12 -56 -18 0 -4 -7 -8 -15 -8 -8 0 -29 -7 -47 -16 -39 -18 -111 -51 -118 -52
-10 -3 -61 -25 -102 -45 -23 -11 -48 -20 -55 -20 -7 0 -13 -4 -13 -10 0 -5 -3
-9 -7 -8 -15 3 -63 -14 -63 -23 0 -5 -3 -8 -7 -7 -9 1 -33 -7 -83 -30 -19 -9
-38 -15 -43 -14 -4 1 -7 -3 -7 -10 0 -6 -3 -8 -6 -5 -4 3 -16 1 -28 -5 -11 -7
-27 -13 -35 -14 -8 -2 -17 -6 -20 -11 -3 -4 -13 -9 -21 -11 -8 -2 -33 -12 -56
-23 -24 -10 -47 -19 -52 -19 -5 0 -15 -6 -22 -14 -6 -8 -17 -13 -24 -10 -8 3
-20 -1 -27 -9 -8 -7 -16 -14 -19 -14 -14 0 -80 -28 -80 -33 0 -4 -6 -7 -14 -7
-13 0 -43 -12 -120 -49 -16 -8 -35 -14 -43 -14 -7 0 -13 -5 -13 -12 0 -6 -3
-8 -6 -5 -4 3 -16 1 -28 -5 -11 -7 -23 -13 -26 -13 -3 -1 -18 -8 -35 -15 -16
-7 -36 -14 -44 -16 -8 -1 -17 -6 -20 -11 -3 -4 -15 -10 -26 -11 -11 -2 -27 -9
-35 -16 -17 -14 -50 -10 -50 5 0 6 -4 7 -10 4 -7 -4 -10 -516 -10 -1505 0
-1417 1 -1498 18 -1506 9 -4 20 -6 25 -6 4 1 7 -3 7 -8 0 -6 10 -10 22 -10 12
0 18 -3 15 -7 -10 -9 31 -35 43 -28 6 3 10 1 10 -6 0 -7 3 -10 6 -7 3 4 14 -2
25 -13 11 -11 24 -17 29 -14 6 4 10 1 10 -6 0 -7 3 -9 7 -6 3 4 13 -2 20 -13
8 -11 18 -18 23 -15 5 3 11 1 15 -5 4 -6 11 -8 16 -5 5 4 9 1 9 -5 0 -6 4 -8
10 -5 5 3 10 1 10 -5 0 -6 4 -8 10 -5 5 3 10 -1 10 -10 0 -11 5 -15 14 -12 8
3 16 2 18 -3 2 -5 10 -10 18 -12 8 -2 23 -11 34 -20 10 -10 23 -15 28 -12 4 3
8 0 8 -6 0 -6 4 -9 9 -6 5 3 11 -1 15 -9 3 -8 15 -15 26 -15 14 0 19 -4 14
-12 -5 -8 -2 -9 9 -5 10 3 17 3 17 -2 0 -9 51 -35 63 -33 4 1 7 -2 7 -7 0 -5
14 -14 30 -21 17 -7 30 -16 30 -20 0 -8 40 -21 51 -17 4 1 15 -8 25 -20 11
-12 28 -23 39 -25 11 -2 29 -11 39 -20 10 -10 22 -15 26 -13 5 3 11 -2 14 -11
4 -9 13 -14 21 -10 9 3 15 0 15 -9 0 -9 6 -12 15 -9 8 4 15 1 15 -6 0 -6 4 -9
9 -6 5 3 12 -1 15 -10 3 -9 13 -14 20 -11 8 3 17 -1 20 -9 3 -9 10 -13 15 -10
5 3 12 -1 15 -10 3 -8 14 -14 23 -12 10 2 17 -2 16 -9 -2 -7 0 -12 5 -11 4 1
17 -3 28 -10 12 -6 24 -8 28 -5 3 3 6 1 6 -6 0 -7 4 -10 9 -7 5 3 12 -1 15
-10 3 -8 10 -12 16 -9 5 3 10 1 10 -5 0 -6 4 -9 9 -6 5 3 11 -1 15 -9 3 -8 12
-15 19 -15 8 0 20 -7 27 -15 7 -9 19 -14 26 -11 7 3 15 -1 17 -9 3 -7 19 -16
36 -20 17 -4 29 -11 25 -16 -3 -5 2 -9 10 -9 9 0 18 0 21 0 3 0 14 -9 25 -20
12 -12 25 -18 30 -15 6 4 10 1 10 -5 0 -10 37 -29 51 -26 3 0 13 -7 23 -17 10
-9 21 -15 26 -12 4 3 11 -2 14 -11 4 -9 9 -14 12 -11 3 3 15 -4 26 -15 11 -11
25 -17 32 -15 7 3 18 -4 25 -15 7 -11 19 -17 27 -14 8 3 14 1 14 -5 0 -6 5 -7
10 -4 6 3 10 -1 10 -10 0 -9 4 -14 9 -10 5 3 12 1 16 -5 4 -6 10 -8 15 -5 4 3
11 -2 14 -11 4 -9 13 -14 21 -10 9 3 15 0 15 -10 0 -8 4 -13 9 -9 5 3 12 1 16
-5 4 -6 11 -8 16 -5 5 4 9 1 9 -6 0 -7 3 -10 6 -6 3 3 14 -3 25 -14 11 -11 24
-17 29 -14 6 4 10 1 10 -6 0 -7 3 -9 7 -6 3 4 13 -2 20 -13 8 -11 19 -18 24
-15 5 4 16 -1 25 -9 9 -9 19 -14 24 -11 4 3 10 -2 14 -10 3 -8 14 -15 25 -15
10 0 22 -7 25 -16 3 -9 12 -14 18 -12 7 3 24 -6 38 -19 19 -18 36 -23 77 -23
29 0 53 5 53 10 0 6 7 10 15 10 8 0 15 5 15 11 0 6 7 9 15 5 8 -3 18 1 22 8 9
15 54 41 66 38 4 -1 7 3 7 10 0 6 3 9 6 5 3 -3 15 3 27 14 11 10 27 19 34 19
7 0 13 5 13 11 0 5 5 7 10 4 6 -3 10 -1 10 5 0 6 5 8 10 5 6 -3 10 -1 10 5 0
6 5 8 10 5 6 -3 10 -1 10 5 0 6 5 8 10 5 6 -3 13 1 16 9 3 9 10 13 15 10 5 -3
9 0 9 5 0 6 6 11 14 11 7 0 19 7 26 15 7 8 16 12 21 9 5 -3 9 0 9 6 0 6 5 8
10 5 6 -3 10 -1 10 5 0 6 5 8 10 5 6 -3 10 -2 10 3 0 5 18 17 40 28 22 10 40
23 40 27 0 5 4 6 9 3 5 -3 14 1 21 9 7 8 19 15 26 15 8 0 14 4 14 9 0 9 38 24
53 22 4 -1 10 6 13 14 3 8 10 12 15 9 5 -3 9 0 9 6 0 6 4 9 9 6 5 -4 11 0 14
6 3 8 9 3 15 -12 11 -25 11 -24 11 8 1 19 5 31 11 27 6 -3 10 -1 10 5 0 6 5 8
10 5 6 -3 10 -1 10 4 0 6 7 11 15 11 8 0 15 5 15 11 0 5 4 8 9 5 5 -3 14 1 21
9 7 8 16 12 21 9 5 -3 9 0 9 6 0 6 5 8 10 5 6 -3 10 -1 10 4 0 6 7 11 15 11 8
0 15 5 15 10 0 6 6 10 14 10 7 0 25 9 39 20 15 12 29 21 31 21 3 0 21 9 40 20
20 11 38 20 42 19 4 -1 11 5 16 14 5 9 13 14 19 11 5 -4 9 -1 9 5 0 6 5 8 10
5 6 -3 10 -1 10 4 0 6 7 11 15 11 8 0 15 3 15 8 0 9 49 32 68 32 7 0 11 4 8 8
-3 5 11 14 30 21 18 7 34 16 34 20 0 9 38 24 53 22 4 -1 7 3 7 7 0 10 50 37
63 34 4 -1 7 3 7 8 0 6 7 10 15 10 8 0 15 5 15 10 0 6 6 10 14 10 7 0 49 19
92 43 84 46 226 121 439 232 72 37 149 78 173 92 23 13 42 21 42 18 0 -3 9 3
20 13 20 18 20 29 18 1463 l-3 1444 -24 -3 c-15 -2 -21 0 -17 7 4 6 3 11 -2
11 -11 0 -204 110 -212 121 -3 3 -15 9 -27 13 -13 4 -23 12 -23 17 0 5 -6 9
-14 9 -8 0 -21 7 -30 15 -8 9 -19 16 -23 16 -4 0 -44 22 -88 48 -144 86 -180
105 -187 103 -5 -1 -8 2 -8 8 0 5 -22 21 -49 35 -27 13 -53 29 -56 35 -4 6
-21 9 -40 6 -20 -4 -39 -1 -47 7 -7 6 -20 13 -28 15 -8 2 -17 7 -20 10 -3 4
-12 8 -20 10 -8 2 -22 10 -31 18 -8 8 -21 14 -27 14 -7 0 -12 5 -12 11 0 5 -4
8 -9 4 -5 -3 -16 1 -24 9 -8 8 -17 12 -21 9 -3 -4 -6 -2 -6 3 0 6 -16 16 -35
23 -19 7 -33 17 -30 22 3 5 0 6 -8 3 -8 -3 -21 2 -30 10 -9 9 -20 16 -26 16
-6 0 -11 5 -11 11 0 5 -4 8 -9 4 -5 -3 -16 1 -24 9 -8 8 -17 13 -19 10 -3 -2
-11 2 -18 11 -7 8 -19 15 -26 15 -8 0 -14 5 -14 11 0 5 -4 8 -9 4 -5 -3 -15 1
-23 8 -7 7 -17 14 -23 16 -5 1 -10 11 -9 21 0 11 -8 22 -18 26 -10 3 -18 10
-18 16 0 5 -7 8 -15 4 -8 -3 -15 -2 -15 3 0 4 -12 14 -27 22 -16 8 -52 28 -82
46 -30 18 -58 30 -62 28 -4 -3 -9 2 -13 10 -3 8 -23 22 -46 31 -22 9 -40 21
-40 26 0 6 -7 8 -15 4 -8 -3 -15 -2 -15 2 0 5 -18 18 -40 31 -22 12 -40 19
-40 15 0 -4 -9 3 -19 15 -11 12 -29 23 -40 24 -12 1 -21 4 -21 7 0 4 -17 15
-38 26 -21 12 -49 28 -62 36 -23 15 -28 14 -75 -8z"/>
</g>
</svg>
